<?xml version="1.0" standalone="no"?>
<!DOCTYPE svg PUBLIC "-//W3C//DTD SVG 20010904//EN"
 "http://www.w3.org/TR/2001/REC-SVG-20010904/DTD/svg10.dtd">
<svg version="1.0" xmlns="http://www.w3.org/2000/svg"
 width="400.000000pt" height="400.000000pt" viewBox="0 0 400.000000 400.000000"
 preserveAspectRatio="xMidYMid meet">
<metadata>
Created by potrace 1.14, written by Peter Selinger 2001-2017
</metadata>
<g transform="translate(0.000000,400.000000) scale(0.100000,-0.100000)"
fill="#000000" stroke="none">
<path d="M2301 3740 c-92 -13 -265 -67 -346 -107 -217 -110 -474 -387 -530
-573 -10 -30 -23 -68 -30 -85 -65 -154 -73 -340 -25 -606 17 -96 36 -192 42
-214 14 -54 47 -278 42 -287 -3 -4 -35 4 -72 17 -292 103 -299 106 -387 212
-91 111 -180 268 -235 418 -58 158 -105 251 -132 266 -10 5 -65 17 -123 25
l-105 16 -31 -24 c-60 -44 -112 -102 -132 -147 -17 -38 -18 -57 -13 -130 14
-166 79 -415 116 -441 4 -3 20 -30 35 -60 91 -180 322 -413 495 -498 l95 -47
-95 -3 c-182 -6 -236 14 -442 158 l-93 65 -120 0 -120 0 -48 -40 -47 -39 0
-179 0 -178 29 -42 c96 -138 254 -238 482 -306 93 -28 115 -31 239 -31 163 0
294 21 492 80 75 22 139 40 142 40 33 0 -56 -113 -164 -207 -113 -98 -113 -98
-255 -153 -44 -18 -100 -42 -125 -55 -25 -12 -65 -31 -90 -41 -63 -26 -130
-95 -130 -133 0 -45 27 -164 46 -205 23 -47 138 -105 237 -117 117 -15 283 25
430 103 71 38 245 183 316 263 30 33 84 89 121 125 75 72 171 198 240 316 51
87 88 130 100 118 4 -5 20 -63 35 -129 22 -101 28 -160 36 -375 10 -244 21
-334 60 -473 l10 -37 253 0 253 0 17 77 c32 146 41 294 27 489 -20 285 -30
384 -47 451 -27 109 6 123 56 23 16 -32 43 -78 60 -104 38 -56 177 -184 287
-265 44 -33 85 -66 90 -73 4 -8 49 -52 98 -98 151 -142 352 -228 598 -254 l57
-6 0 300 0 299 -42 11 c-103 26 -168 53 -228 93 -35 23 -65 47 -67 53 -2 7 24
9 84 6 47 -3 124 1 170 8 l83 12 0 657 c0 656 0 656 -20 614 -45 -101 -144
-218 -253 -302 -74 -57 -204 -128 -214 -117 -4 3 1 88 10 189 12 129 23 201
39 247 20 58 23 84 22 230 0 182 -12 242 -82 425 -63 164 -119 264 -210 375
-140 169 -323 291 -551 367 -97 33 -117 36 -241 39 -74 1 -164 -1 -199 -6z
m-401 -966 c72 -21 150 -98 176 -174 23 -70 24 -169 0 -237 -21 -63 -92 -145
-150 -175 -24 -12 -68 -23 -106 -26 -119 -8 -211 53 -268 177 -21 45 -26 72
-26 136 -1 71 3 88 32 147 69 140 195 196 342 152z m1358 -10 c100 -50 157
-151 157 -279 0 -103 -16 -153 -68 -218 -64 -78 -114 -102 -212 -102 -70 0
-87 4 -133 30 -64 35 -96 71 -131 145 -22 46 -26 69 -26 140 0 101 27 169 92
236 50 51 107 72 199 73 56 1 80 -4 122 -25z"/>
<path d="M1768 2639 c-65 -18 -138 -108 -138 -169 1 -41 35 -105 71 -133 94
-70 205 -47 257 53 71 139 -43 289 -190 249z"/>
<path d="M3061 2630 c-143 -65 -148 -237 -9 -310 81 -42 163 -21 210 52 37 60
44 109 24 162 -21 55 -64 95 -112 107 -54 12 -63 11 -113 -11z"/>
<path d="M3930 30 c0 -28 3 -30 35 -30 32 0 35 2 35 30 0 28 -3 30 -35 30 -32
0 -35 -2 -35 -30z"/>
</g>
</svg>
